# xmcd
#
# Track frame offsets:
#	150
#	14803
#	26940
#	39100
#	57903
#	74763
#	90463
#	106870
#	122660
#	135660
#	148955
#	164763
#
# Disc length: 2397 seconds
#
# Revision: 0
# Processed by: cddbd v1.4PL0 Copyright (c) Steve Scherf et al.
# Submitted via: EasyCDDAExtractor 4.6.0.1
#
DISCID=b2095b0c
DTITLE=Various Artist - 12 Exitos Clasicos
DYEAR=1900
DGENRE=Tejano
TTITLE0=Las Morenitas
TTITLE1=Triste Y Lastimado
TTITLE2=Talk To Me
TTITLE3=Memories
TTITLE4=Tu Prieto
TTITLE5=If You Need Me
TTITLE6=Que Casualidad
TTITLE7=Presentimiento
TTITLE8=Aunque Me Cueste La Vida
TTITLE9=Angelito
TTITLE10=Hoy Amaneci Pensando En Ti
TTITLE11=Lo Mucho Que Te Quiero
EXTD=
EXTT0=
EXTT1=
EXTT2=
EXTT3=
EXTT4=
EXTT5=
EXTT6=
EXTT7=
EXTT8=
EXTT9=
EXTT10=
EXTT11=
PLAYORDER=
